<svg width="53" height="52" viewBox="0 0 53 52" fill="none" xmlns="http://www.w3.org/2000/svg">
<rect x="1" y="0.5" width="51" height="51" rx="25.5" stroke="#E3E8E7"/>
<path d="M28.7753 17.5557C28.8008 17.4606 28.8447 17.3713 28.9047 17.2931C28.9647 17.215 29.0394 17.1494 29.1248 17.1001C29.2101 17.0508 29.3043 17.0188 29.402 17.006C29.4996 16.9931 29.5989 16.9996 29.6941 17.0251C31.0844 17.3879 32.353 18.1147 33.369 19.1308C34.3851 20.1468 35.1119 21.4154 35.4747 22.8057C35.5002 22.9009 35.5067 23.0002 35.4939 23.0979C35.481 23.1955 35.449 23.2897 35.3997 23.3751C35.3505 23.4604 35.2849 23.5352 35.2067 23.5951C35.1285 23.6551 35.0393 23.699 34.9441 23.7245C34.8807 23.7411 34.8155 23.7496 34.75 23.7498C34.5849 23.7499 34.4243 23.6954 34.2933 23.5949C34.1622 23.4944 34.0681 23.3534 34.0253 23.1939C33.7296 22.0587 33.1365 21.0229 32.3071 20.1934C31.4777 19.3638 30.442 18.7704 29.3069 18.4745C29.2116 18.4491 29.1223 18.4052 29.044 18.3453C28.9657 18.2854 28.9 18.2107 28.8506 18.1253C28.8013 18.04 28.7692 17.9458 28.7563 17.848C28.7433 17.7503 28.7498 17.651 28.7753 17.5557ZM28.5569 21.4745C29.8497 21.8195 30.6803 22.6511 31.0253 23.9439C31.0681 24.1034 31.1622 24.2444 31.2933 24.3449C31.4243 24.4454 31.5849 24.4999 31.75 24.4998C31.8155 24.4996 31.8807 24.4911 31.9441 24.4745C32.0393 24.449 32.1285 24.4051 32.2067 24.3451C32.2849 24.2852 32.3505 24.2104 32.3997 24.1251C32.449 24.0397 32.481 23.9455 32.4939 23.8479C32.5067 23.7502 32.5002 23.6509 32.4747 23.5557C31.9947 21.7595 30.7403 20.5051 28.9441 20.0251C28.8489 19.9997 28.7497 19.9933 28.652 20.0062C28.5544 20.0191 28.4602 20.0512 28.3749 20.1005C28.2897 20.1498 28.2149 20.2154 28.155 20.2936C28.0951 20.3718 28.0512 20.461 28.0258 20.5562C28.0004 20.6514 27.9939 20.7506 28.0069 20.8483C28.0198 20.9459 28.0518 21.0401 28.1012 21.1253C28.1505 21.2106 28.2161 21.2853 28.2943 21.3452C28.3725 21.4052 28.4617 21.4491 28.5569 21.4745ZM35.3472 28.8554L30.9306 26.8764L30.9184 26.8707C30.6892 26.7727 30.439 26.7333 30.1907 26.7562C29.9424 26.7792 29.7037 26.8636 29.4963 27.002C29.4718 27.0181 29.4484 27.0357 29.4259 27.0545L27.1441 28.9998C25.6984 28.2976 24.2059 26.8164 23.5038 25.3895L25.4519 23.0729C25.4706 23.0495 25.4884 23.0261 25.5053 23.0007C25.6407 22.7938 25.7229 22.5567 25.7445 22.3103C25.7661 22.064 25.7264 21.8162 25.6291 21.5889V21.5776L23.6444 17.1536C23.5157 16.8566 23.2944 16.6093 23.0136 16.4484C22.7328 16.2876 22.4075 16.2218 22.0863 16.2611C20.8159 16.4282 19.6499 17.0521 18.8059 18.0161C17.9619 18.9802 17.4977 20.2185 17.5 21.4998C17.5 28.9436 23.5563 34.9998 31 34.9998C32.2813 35.0021 33.5196 34.5379 34.4837 33.6939C35.4477 32.85 36.0716 31.6839 36.2388 30.4136C36.2781 30.0924 36.2125 29.7672 36.0518 29.4864C35.8911 29.2056 35.644 28.9843 35.3472 28.8554Z" fill="#329993"/>
</svg>
