<svg width="51" height="50" viewBox="0 0 51 50" fill="none" xmlns="http://www.w3.org/2000/svg">
<rect x="0.5" width="50" height="50" rx="6" fill="#F3F6F9"/>
<path d="M39.0024 47.6743L38.1295 40.6905C37.9977 39.6364 37.2723 38.7516 36.2646 38.4156L32.8985 37.2936C32.4362 37.1394 31.9292 37.2376 31.5727 37.5413L30.5811 37.2108C30.018 37.023 29.638 36.496 29.638 35.9023V33.678L32.6088 32.4401C34.1508 31.7978 35.1552 30.2912 35.1552 28.6207V27.931C36.2979 27.931 37.2241 27.0047 37.2241 25.862C37.2241 25.3466 37.0353 24.8756 36.7235 24.5133C37.3089 22.3825 38.9543 15.6421 37.2241 12.7586L37.9138 10C37.9138 10 30.6724 10.1724 26.8793 11.3793L28.2586 10C28.2586 10 18.5604 10 16.5351 13.4477L16.5345 13.4483C16.5345 13.4483 13.0863 13.4196 13.0863 17.5862C13.0863 19.1112 13.9369 22.9191 14.302 24.484C13.9751 24.8499 13.7759 25.3326 13.7759 25.862C13.7759 27.0047 14.7022 27.931 15.8449 27.931V28.6207C15.8449 30.2911 16.8493 31.7977 18.3913 32.4403L21.3621 33.6781V35.9024C21.3621 36.4961 20.9822 37.0231 20.419 37.2109L19.4275 37.5414C19.071 37.2377 18.5639 37.1395 18.1017 37.2936L14.7356 38.4157C13.7277 38.7517 13.0024 39.6365 12.8707 40.6906L11.9977 47.6744C11.8433 48.9092 12.8062 49.9999 14.0507 49.9999H14.0701H36.93H36.9494C38.1939 49.9999 39.1568 48.9092 39.0024 47.6743Z" fill="#FFD7A3"/>
<path d="M29.6379 33.6782L21.362 33.6783V35.9025C21.362 36.399 21.0874 36.8362 20.6709 37.08C26.4549 38.0924 29.6379 33.6782 29.6379 33.6782Z" fill="#FDC88E"/>
<path d="M14.4657 25.1724C14.4657 25.1724 13.0864 19.5281 13.0864 17.5862C13.0864 13.4196 16.5347 13.4483 16.5347 13.4483L16.5353 13.4477C18.5606 10 28.2588 10 28.2588 10L26.8795 11.3793C30.6726 10.1724 37.914 10 37.914 10L37.2243 12.7586C39.2933 16.2069 36.5346 25.1724 36.5346 25.1724H14.4657Z" fill="#734A3E"/>
<path d="M28.2588 10C28.2588 10 18.5606 10 16.5353 13.4477L16.5347 13.4483C16.5347 13.4483 13.0864 13.4196 13.0864 17.5862C13.0864 19.5281 14.4657 25.1724 14.4657 25.1724C14.4657 25.1724 28.8048 18.7644 37.914 10C37.914 10 30.6726 10.1724 26.8795 11.3793L28.2588 10Z" fill="#623F33"/>
<path d="M35.1551 23.7929V22.4136C35.1551 20.5092 33.6113 18.9653 31.7069 18.9653H19.2931C17.3887 18.9653 15.8448 20.5092 15.8448 22.4136V23.7929C14.7022 23.7929 13.7759 24.7192 13.7759 25.8619C13.7759 27.0045 14.7022 27.9308 15.8448 27.9308V28.6205C15.8448 30.2909 16.8492 31.7975 18.3912 32.4401L22.8473 34.2969C23.6878 34.6471 24.5894 34.8274 25.4999 34.8274C26.4104 34.8274 27.3119 34.647 28.1524 34.2969L32.6088 32.44C34.1507 31.7976 35.1551 30.291 35.1551 28.6205V27.9308C36.2978 27.9308 37.2241 27.0045 37.2241 25.8619C37.2241 24.7192 36.2978 23.7929 35.1551 23.7929Z" fill="#FFE1B2"/>
<path d="M20.6726 26.5519C20.2933 26.5519 19.9829 26.2415 19.9829 25.8622V25.1726C19.9829 24.7933 20.2933 24.4829 20.6726 24.4829C21.0519 24.4829 21.3622 24.7933 21.3622 25.1726V25.8622C21.3622 26.2415 21.0519 26.5519 20.6726 26.5519Z" fill="#623F33"/>
<path d="M30.3276 26.5519C29.9483 26.5519 29.6379 26.2415 29.6379 25.8622V25.1726C29.6379 24.7933 29.9483 24.4829 30.3276 24.4829C30.7069 24.4829 31.0172 24.7933 31.0172 25.1726V25.8622C31.0172 26.2415 30.7069 26.5519 30.3276 26.5519Z" fill="#623F33"/>
<path d="M25.5001 31.398C24.274 31.398 23.1271 31.0963 22.3536 30.57C22.0388 30.3559 21.9569 29.9268 22.1714 29.612C22.3852 29.2975 22.8146 29.2156 23.1294 29.4298C23.6716 29.7986 24.5579 30.0188 25.5001 30.0188C26.4424 30.0188 27.3287 29.7986 27.8708 29.4298C28.1863 29.215 28.6147 29.2972 28.8288 29.612C29.0433 29.9268 28.9615 30.3559 28.6467 30.57C27.8732 31.0963 26.7262 31.398 25.5001 31.398Z" fill="#E4B07B"/>
<path d="M39.0024 47.6742L38.1295 40.6904C37.9978 39.6363 37.2723 38.7514 36.2646 38.4155L32.8985 37.2934C32.3123 37.098 31.6528 37.3067 31.3217 37.8284C30.0991 39.7546 27.9504 41.0342 25.5 41.0342C23.0497 41.0342 20.901 39.7545 19.6785 37.8284C19.3474 37.3067 18.6879 37.098 18.1017 37.2934L14.7356 38.4155C13.7277 38.7514 13.0024 39.6363 12.8707 40.6904L11.9977 47.6742C11.8433 48.909 12.8063 49.9998 14.0507 49.9998H36.9495C38.1939 49.9998 39.1568 48.909 39.0024 47.6742Z" fill="#00BEA4"/>
<path d="M13.4456 39.3247C13.1394 39.7124 12.9344 40.1807 12.8707 40.6905L11.9977 47.6743C11.8433 48.9092 12.8063 49.9999 14.0507 49.9999H17.9138V45.5113C17.9138 44.8478 17.6747 44.2066 17.2403 43.705L13.4456 39.3247Z" fill="#00AB9A"/>
<path d="M37.5545 39.3247C37.8607 39.7124 38.0657 40.1807 38.1294 40.6905L39.0023 47.6743C39.1567 48.9092 38.1938 49.9999 36.9493 49.9999H33.0862V45.5113C33.0862 44.8478 33.3253 44.2066 33.7597 43.705L37.5545 39.3247Z" fill="#00AB9A"/>
<path d="M19.4652 31.0104C18.9064 30.4113 18.6035 29.6207 18.6035 28.8013V20.9858C20.7986 20.8213 27.7194 20.2227 31.707 18.9653H19.2931C19.0557 18.9653 18.8258 18.993 18.6035 19.0413V19.0348C17.0296 19.3544 15.8448 20.7454 15.8448 22.4136V23.7929C14.7022 23.7929 13.7759 24.7192 13.7759 25.8619C13.7759 27.0045 14.7022 27.9308 15.8448 27.9308V28.6205C15.8448 30.291 16.8492 31.7976 18.3912 32.4401L22.8472 34.2969C23.0653 34.3877 23.2879 34.466 23.5134 34.5338C21.5441 33.0931 20.2332 31.8338 19.4652 31.0104Z" fill="#FFD7A3"/>
</svg>
