
<svg width="36" height="38" viewBox="0 0 36 38" fill="none" xmlns="http://www.w3.org/2000/svg">
<rect width="36" height="38" rx="18" fill="#EDEFFF"/>
<path d="M25.95 28C23.8667 28 21.8083 27.546 19.775 26.638C17.7417 25.73 15.8917 24.4423 14.225 22.775C12.5583 21.1083 11.271 19.2583 10.363 17.225C9.455 15.1917 9.00067 13.1333 9 11.05C9 10.75 9.1 10.5 9.3 10.3C9.5 10.1 9.75 10 10.05 10H14.1C14.3333 10 14.5417 10.0793 14.725 10.238C14.9083 10.3967 15.0167 10.584 15.05 10.8L15.7 14.3C15.7333 14.5667 15.725 14.7917 15.675 14.975C15.625 15.1583 15.5333 15.3167 15.4 15.45L12.975 17.9C13.3083 18.5167 13.704 19.1123 14.162 19.687C14.62 20.2617 15.1243 20.816 15.675 21.35C16.1917 21.8667 16.7333 22.346 17.3 22.788C17.8667 23.23 18.4667 23.634 19.1 24L21.45 21.65C21.6 21.5 21.796 21.3877 22.038 21.313C22.28 21.2383 22.5173 21.2173 22.75 21.25L26.2 21.95C26.4333 22.0167 26.625 22.1377 26.775 22.313C26.925 22.4883 27 22.684 27 22.9V26.95C27 27.25 26.9 27.5 26.7 27.7C26.5 27.9 26.25 28 25.95 28ZM12.025 16L13.675 14.35L13.25 12H11.025C11.1083 12.6833 11.225 13.3583 11.375 14.025C11.525 14.6917 11.7417 15.35 12.025 16ZM20.975 24.95C21.625 25.2333 22.2877 25.4583 22.963 25.625C23.6383 25.7917 24.3173 25.9 25 25.95V23.75L22.65 23.275L20.975 24.95Z" fill="#5D34F3" fill-opacity="0.8"/>
</svg>
