<svg width="22" height="29" viewBox="0 0 22 29" fill="none" xmlns="http://www.w3.org/2000/svg">
<path d="M10.9997 21.6668C10.2924 21.6668 9.61415 21.3859 9.11406 20.8858C8.61396 20.3857 8.33301 19.7074 8.33301 19.0002C8.33301 17.5202 9.51967 16.3335 10.9997 16.3335C11.7069 16.3335 12.3852 16.6144 12.8853 17.1145C13.3854 17.6146 13.6663 18.2929 13.6663 19.0002C13.6663 19.7074 13.3854 20.3857 12.8853 20.8858C12.3852 21.3859 11.7069 21.6668 10.9997 21.6668ZM18.9997 25.6668V12.3335H2.99967V25.6668H18.9997ZM18.9997 9.66683C19.7069 9.66683 20.3852 9.94778 20.8853 10.4479C21.3854 10.948 21.6663 11.6263 21.6663 12.3335V25.6668C21.6663 26.3741 21.3854 27.0524 20.8853 27.5524C20.3852 28.0525 19.7069 28.3335 18.9997 28.3335H2.99967C2.29243 28.3335 1.61415 28.0525 1.11406 27.5524C0.613959 27.0524 0.333008 26.3741 0.333008 25.6668V12.3335C0.333008 10.8535 1.51967 9.66683 2.99967 9.66683H4.33301V7.00016C4.33301 5.23205 5.03539 3.53636 6.28563 2.28612C7.53587 1.03588 9.23156 0.333496 10.9997 0.333496C11.8752 0.333496 12.7421 0.505935 13.5509 0.840966C14.3597 1.176 15.0947 1.66706 15.7137 2.28612C16.3328 2.90517 16.8238 3.6401 17.1589 4.44894C17.4939 5.25778 17.6663 6.12468 17.6663 7.00016V9.66683H18.9997ZM10.9997 3.00016C9.93881 3.00016 8.92139 3.42159 8.17125 4.17174C7.4211 4.92188 6.99967 5.9393 6.99967 7.00016V9.66683H14.9997V7.00016C14.9997 5.9393 14.5782 4.92188 13.8281 4.17174C13.078 3.42159 12.0605 3.00016 10.9997 3.00016Z" fill="#5D34F3"/>
</svg>
