<svg width="32" height="32" viewBox="0 0 32 32" fill="none" xmlns="http://www.w3.org/2000/svg">
<path d="M28 14.6667V12H25.3333V9.33333C25.3312 8.62674 25.0496 7.94969 24.55 7.45005C24.0503 6.95041 23.3733 6.66878 22.6667 6.66667H20V4H17.3333V6.66667H14.6667V4H12V6.66667H9.33333C8.62674 6.66878 7.94969 6.95041 7.45005 7.45005C6.95041 7.94969 6.66878 8.62674 6.66667 9.33333V12H4V14.6667H6.66667V17.3333H4V20H6.66667V22.6667C6.66878 23.3733 6.95041 24.0503 7.45005 24.55C7.94969 25.0496 8.62674 25.3312 9.33333 25.3333H12V28H14.6667V25.3333H17.3333V28H20V25.3333H22.6667C23.3733 25.3312 24.0503 25.0496 24.55 24.55C25.0496 24.0503 25.3312 23.3733 25.3333 22.6667V20H28V17.3333H25.3333V14.6667H28ZM22.6667 22.6667H9.33333V9.33333H22.6667V22.6667Z" fill="#5D34F3"/>
<path d="M15.1481 10.6667H13.3548L10.6748 21.3334H12.0441L12.6628 18.8334H15.7508L16.3535 21.3334H17.7695L15.1481 10.6667ZM12.8428 17.7654L14.2001 11.9334H14.2615L15.5721 17.7654H12.8428ZM18.9921 10.6667H20.3255V21.3334H18.9921V10.6667Z" fill="#5D34F3"/>
</svg>
