<svg width="20" height="21" viewBox="0 0 20 21" fill="none" xmlns="http://www.w3.org/2000/svg">
<path d="M11.0286 0.837891C12.1536 0.840891 12.7246 0.846891 13.2176 0.860891L13.4116 0.867891C13.6356 0.875891 13.8566 0.885891 14.1236 0.897891C15.1876 0.947891 15.9136 1.11589 16.5506 1.36289C17.2106 1.61689 17.7666 1.96089 18.3226 2.51589C18.8311 3.01579 19.2245 3.62048 19.4756 4.28789C19.7226 4.92489 19.8906 5.65089 19.9406 6.71589C19.9526 6.98189 19.9626 7.20289 19.9706 7.42789L19.9766 7.62189C19.9916 8.11389 19.9976 8.68489 19.9996 9.80989L20.0006 10.5559V11.8659C20.003 12.5953 19.9954 13.3247 19.9776 14.0539L19.9716 14.2479C19.9636 14.4729 19.9536 14.6939 19.9416 14.9599C19.8916 16.0249 19.7216 16.7499 19.4756 17.3879C19.2253 18.0557 18.8317 18.6605 18.3226 19.1599C17.8225 19.6682 17.2179 20.0616 16.5506 20.3129C15.9136 20.5599 15.1876 20.7279 14.1236 20.7779C13.8863 20.7891 13.649 20.7991 13.4116 20.8079L13.2176 20.8139C12.7246 20.8279 12.1536 20.8349 11.0286 20.8369L10.2826 20.8379H8.97358C8.24384 20.8404 7.5141 20.8327 6.78458 20.8149L6.59058 20.8089C6.35319 20.7999 6.11585 20.7896 5.87858 20.7779C4.81458 20.7279 4.08858 20.5599 3.45058 20.3129C2.78325 20.0623 2.17879 19.6687 1.67958 19.1599C1.17062 18.6602 0.776801 18.0555 0.525577 17.3879C0.278577 16.7509 0.110577 16.0249 0.0605769 14.9599C0.0494358 14.7226 0.0394357 14.4853 0.030577 14.2479L0.0255771 14.0539C0.00714914 13.3247 -0.00118508 12.5953 0.000577001 11.8659V9.80989C-0.00221397 9.08049 0.00512015 8.35109 0.0225771 7.62189L0.029577 7.42789C0.037577 7.20289 0.047577 6.98189 0.059577 6.71589C0.109577 5.65089 0.277577 4.92589 0.524577 4.28789C0.775691 3.61979 1.1703 3.01491 1.68058 2.51589C2.17967 2.00736 2.78372 1.61388 3.45058 1.36289C4.08858 1.11589 4.81358 0.947891 5.87858 0.897891C6.14458 0.885891 6.36658 0.875891 6.59058 0.867891L6.78458 0.861891C7.51377 0.844123 8.24317 0.836456 8.97258 0.838891L11.0286 0.837891ZM10.0006 5.83789C8.67449 5.83789 7.40273 6.36467 6.46504 7.30236C5.52736 8.24004 5.00058 9.51181 5.00058 10.8379C5.00058 12.164 5.52736 13.4357 6.46504 14.3734C7.40273 15.3111 8.67449 15.8379 10.0006 15.8379C11.3267 15.8379 12.5984 15.3111 13.5361 14.3734C14.4738 13.4357 15.0006 12.164 15.0006 10.8379C15.0006 9.51181 14.4738 8.24004 13.5361 7.30236C12.5984 6.36467 11.3267 5.83789 10.0006 5.83789ZM10.0006 7.83789C10.3945 7.83782 10.7847 7.91536 11.1487 8.06606C11.5127 8.21676 11.8434 8.43769 12.122 8.71622C12.4007 8.99475 12.6217 9.32543 12.7725 9.68938C12.9233 10.0533 13.001 10.4434 13.0011 10.8374C13.0011 11.2314 12.9236 11.6215 12.7729 11.9855C12.6222 12.3495 12.4013 12.6802 12.1228 12.9589C11.8442 13.2375 11.5135 13.4585 11.1496 13.6093C10.7856 13.7602 10.3955 13.8378 10.0016 13.8379C9.20593 13.8379 8.44287 13.5218 7.88026 12.9592C7.31765 12.3966 7.00158 11.6335 7.00158 10.8379C7.00158 10.0422 7.31765 9.27918 7.88026 8.71657C8.44287 8.15396 9.20593 7.83789 10.0016 7.83789M15.2516 4.33789C14.9201 4.33789 14.6021 4.46959 14.3677 4.70401C14.1333 4.93843 14.0016 5.25637 14.0016 5.58789C14.0016 5.91941 14.1333 6.23735 14.3677 6.47177C14.6021 6.70619 14.9201 6.83789 15.2516 6.83789C15.5831 6.83789 15.901 6.70619 16.1355 6.47177C16.3699 6.23735 16.5016 5.91941 16.5016 5.58789C16.5016 5.25637 16.3699 4.93843 16.1355 4.70401C15.901 4.46959 15.5831 4.33789 15.2516 4.33789Z" fill="white"/>
</svg>
