<svg width="30" height="30" viewBox="0 0 30 30" fill="none" xmlns="http://www.w3.org/2000/svg">
<path d="M25.5028 6.00054C25.2266 6.00235 25.0013 5.77996 24.9995 5.50382C24.9931 4.51954 24.7594 3.50875 24.1554 2.69508C23.5603 1.89342 22.5664 1.22947 20.9288 0.995528C20.6554 0.956468 20.4655 0.703208 20.5045 0.429838C20.5436 0.156468 20.7968 -0.0334771 21.0702 0.00557793C22.9326 0.271628 24.1818 1.05302 24.9583 2.09903C25.7259 3.13302 25.9921 4.37223 25.9995 5.49728C26.0013 5.77342 25.7789 5.99874 25.5028 6.00054ZM22.4995 6.50382C22.5013 6.77996 22.7266 7.00235 23.0028 7.00054C23.2789 6.99874 23.5013 6.77342 23.4995 6.49728C23.4924 5.40609 23.2271 4.15866 22.4495 3.17326C21.6554 2.1669 20.3794 1.50055 18.4995 1.50055C18.2234 1.50055 17.9995 1.72441 17.9995 2.00055C17.9995 2.2767 18.2234 2.50055 18.4995 2.50055C20.1196 2.50055 21.0869 3.06079 21.6645 3.79272C22.2586 4.54561 22.4933 5.54818 22.4995 6.50382ZM3.49951 16.0006C3.77565 16.0006 3.99951 16.2244 3.99951 16.5006C3.99951 17.5234 4.00679 18.4149 4.33408 19.1786C4.64228 19.8977 5.26546 20.5622 6.65762 21.0262C6.9196 21.1135 7.06118 21.3967 6.97385 21.6587C6.88653 21.9206 6.60337 22.0622 6.3414 21.9749C4.73355 21.4389 3.85674 20.6034 3.41494 19.5725C2.99925 18.6026 2.99939 17.5145 2.99951 16.5493V16.5006C2.99951 16.2244 3.22337 16.0006 3.49951 16.0006ZM1.47949 18.0318C1.75563 18.0318 1.97949 18.2557 1.97949 18.5318C1.97949 20.4558 3.42091 23.0318 6.45263 23.0318C6.72878 23.0318 6.95263 23.2557 6.95263 23.5318C6.95263 23.8079 6.72878 24.0318 6.45263 24.0318C2.70311 24.0318 0.979492 20.8266 0.979492 18.5318C0.979492 18.2557 1.20335 18.0318 1.47949 18.0318ZM20.4883 5.8063C20.0442 4.8271 19.2307 4.35758 18.4425 4.21455C17.6998 4.07978 16.9505 4.2228 16.4267 4.47375C15.9586 4.69804 15.4421 5.18913 15.1241 5.87579C15.0418 5.8348 14.9577 5.79733 14.8723 5.76366C14.1571 5.48157 13.2613 5.42651 12.361 5.84292L12.3496 5.84817L12.3384 5.8537C11.8914 6.07419 11.3267 6.52237 10.9698 7.20599C10.5907 7.9323 10.4817 8.86161 10.8994 9.9038C10.9614 10.0586 11.0214 10.2071 11.0793 10.3493C10.6786 10.3814 10.2461 10.4949 9.78871 10.7223C8.69802 11.2645 7.65135 12.9618 8.7294 15.1261L8.74719 15.1618L8.76776 15.196C8.82364 15.2888 8.89044 15.399 8.96316 15.518C8.50467 15.7115 8.08483 16.0024 7.75942 16.3632C7.3424 16.8256 7.04179 17.441 7.02147 18.1695C7.0012 18.8966 7.26257 19.6314 7.77951 20.3349C8.12177 20.8006 8.65575 21.4048 9.15991 21.9347C9.64131 22.4406 10.1553 22.9418 10.5005 23.2166L15.0673 27.3874L15.0799 27.3989L15.0929 27.4099C15.6192 27.8587 16.5359 28.4947 17.6496 29.0224C18.7594 29.5482 20.1359 30.0006 21.562 30.0006C23.3315 30.0006 25.4175 29.3024 27.0715 27.9164C28.7516 26.5085 29.9995 24.3761 29.9995 21.5552V21.5346L29.9986 21.514C29.9487 20.3047 29.6883 19.147 29.4455 18.0679C29.4001 17.866 29.3553 17.6668 29.3126 17.4706C29.0346 16.1926 28.8204 14.9506 28.9263 13.5527C29.059 11.8015 29.0838 11.5278 29.133 10.9862C29.1431 10.8754 29.1542 10.7533 29.1674 10.6051C29.2143 10.0803 29.0402 9.3611 28.6629 8.73637C28.2621 8.07263 27.5701 7.41488 26.5083 7.19348L26.5003 7.19185C25.9884 7.08946 25.1937 7.10585 24.4549 7.49515C23.6517 7.91837 23.024 8.72702 22.8738 9.9749C22.8446 10.2176 22.819 10.4448 22.7962 10.6571C22.676 10.4294 22.5531 10.1905 22.428 9.9418C21.7747 8.64274 21.1075 7.17166 20.4991 5.83002L20.4883 5.8063ZM15.436 9.8031C15.6019 10.1681 15.7582 10.5124 15.8689 10.758C15.9408 10.9323 16.0031 11.0745 16.0468 11.1594L16.0568 11.1786L16.0584 11.1817L16.0662 11.1962C16.5882 12.3415 17.1782 13.4922 17.6374 14.2731C17.9174 14.7492 18.5302 14.9082 19.0063 14.6282C19.4824 14.3483 19.6414 13.7354 19.3614 13.2593C18.9013 12.4767 18.3134 11.3166 17.8144 10.2086C17.7942 10.1629 17.7686 10.1058 17.739 10.0399L17.6987 9.949L17.6721 9.8834C17.5879 9.6745 17.4849 9.409 17.3789 9.1271C17.1674 8.56466 16.9604 7.97909 16.8655 7.65305C16.7672 7.22725 16.8439 6.90283 16.9604 6.67221C17.0221 6.54999 17.0967 6.45165 17.1667 6.38007C17.2397 6.30534 17.2895 6.27818 17.2909 6.2774C17.4625 6.19522 17.7859 6.12806 18.0854 6.18241C18.3394 6.2285 18.5376 6.34742 18.6669 6.63234L18.686 6.67448C19.2887 8.00361 19.9697 9.5052 20.6413 10.8405C21.3068 12.1637 22.0107 13.4226 22.6621 14.1826C22.8867 14.4446 23.2305 14.5723 23.5717 14.5204C23.9129 14.4685 24.2033 14.2444 24.3398 13.9274C24.521 13.5068 24.5775 13.0088 24.6275 12.4998C24.642 12.3527 24.6564 12.1956 24.672 12.0251C24.7156 11.549 24.7687 10.9683 24.8595 10.2137C24.9352 9.585 25.1941 9.3663 25.3873 9.2645C25.6428 9.1299 25.9512 9.1227 26.1046 9.1523C26.509 9.238 26.7738 9.477 26.9509 9.7703C27.0421 9.9213 27.1038 10.0785 27.1395 10.2148C27.1715 10.3371 27.1744 10.41 27.175 10.4253C27.1751 10.4285 27.1752 10.4292 27.1753 10.4272C27.1621 10.5753 27.151 10.6976 27.1409 10.8089C27.0911 11.3571 27.0656 11.6381 26.932 13.4016C26.8036 15.0973 27.0699 16.5702 27.3583 17.8958C27.4069 18.1192 27.4555 18.3364 27.5031 18.5488C27.743 19.6206 27.9556 20.5701 27.9995 21.5758C27.9936 23.7366 27.0559 25.3202 25.7869 26.3835C24.4878 27.4721 22.855 28.0006 21.562 28.0006C20.5381 28.0006 19.4641 27.669 18.506 27.215C17.5617 26.7676 16.7994 26.2343 16.4029 25.8985L11.8223 21.7153L11.7931 21.6886L11.7619 21.6643C11.5442 21.495 11.0998 21.0721 10.6089 20.5561C10.1248 20.0473 9.65881 19.5148 9.39121 19.1506C9.07691 18.7229 9.01541 18.4145 9.02071 18.2253C9.02591 18.0377 9.09921 17.8638 9.24451 17.7027C9.51671 17.4011 9.92031 17.2626 10.2039 17.2536C10.4326 17.5066 10.6681 17.749 10.9014 17.98C11.3073 18.3818 11.7281 18.7693 12.1195 19.1298L12.1551 19.1626C12.5628 19.5381 12.9333 19.8803 13.2528 20.2036C13.641 20.5963 14.2742 20.6 14.667 20.2118C15.0598 19.8235 15.0634 19.1904 14.6752 18.7976C14.3169 18.4351 13.9109 18.0607 13.5101 17.6915L13.4846 17.668C13.086 17.3009 12.6883 16.9346 12.3085 16.5586C11.9028 16.1571 11.5405 15.7661 11.2404 15.3843C11.1894 15.3065 11.1325 15.2179 11.0717 15.122C10.8957 14.8446 10.7006 14.527 10.5533 14.2837C10.3719 13.8621 10.3127 13.3669 10.3487 12.9344C10.4462 12.6796 10.6155 12.5448 10.6791 12.5132C11.1234 12.2922 11.4453 12.3254 11.6672 12.4015C11.9253 12.4901 12.1019 12.6587 12.1562 12.7303L12.1718 12.7198C12.2111 12.7871 12.2505 12.8541 12.2899 12.9205C13.0414 14.1875 13.8567 15.3794 14.4035 16.1272C14.7294 16.573 15.3551 16.6702 15.8009 16.3442C16.2467 16.0182 16.3439 15.3925 16.0179 14.9467C15.5022 14.2414 14.7236 13.1031 14.0101 11.9002C13.883 11.6861 13.7597 11.4725 13.6413 11.2612C13.598 11.1666 13.5481 11.0555 13.4918 10.9273C13.3087 10.5103 13.0623 9.9243 12.7558 9.1598C12.5548 8.65824 12.6346 8.33886 12.7428 8.13144C12.8701 7.88762 13.0835 7.71939 13.2132 7.65238C13.558 7.49704 13.8764 7.5208 14.1385 7.62417C14.2755 7.67822 14.3913 7.75247 14.4773 7.82822C14.5197 7.86561 14.5512 7.90017 14.5731 7.92836C14.5838 7.94226 14.5915 7.95365 14.5967 7.96208L14.6008 7.96909L14.6023 7.97177L14.6036 7.97435C14.6036 7.97436 14.6039 7.97494 14.6036 7.97435C14.6543 8.08638 14.7827 8.36834 14.9422 8.71855C15.0917 9.04678 15.2689 9.4358 15.436 9.8031Z" fill="#212121"/>
</svg>
