<svg width="32" height="32" viewBox="0 0 32 32" fill="none" xmlns="http://www.w3.org/2000/svg">
<path d="M28 14.6667V12H25.3333V9.33333C25.3312 8.62674 25.0496 7.94969 24.55 7.45005C24.0503 6.95041 23.3733 6.66878 22.6667 6.66667H20V4H17.3333V6.66667H14.6667V4H12V6.66667H9.33333C8.62674 6.66878 7.94969 6.95041 7.45005 7.45005C6.95041 7.94969 6.66878 8.62674 6.66667 9.33333V12H4V14.6667H6.66667V17.3333H4V20H6.66667V22.6667C6.66878 23.3733 6.95041 24.0503 7.45005 24.55C7.94969 25.0496 8.62674 25.3312 9.33333 25.3333H12V28H14.6667V25.3333H17.3333V28H20V25.3333H22.6667C23.3733 25.3312 24.0503 25.0496 24.55 24.55C25.0496 24.0503 25.3312 23.3733 25.3333 22.6667V20H28V17.3333H25.3333V14.6667H28ZM22.6667 22.6667H9.33333V9.33333H22.6667V22.6667Z" fill="#696969"/>
<path d="M15.1479 10.6667H13.3546L10.6746 21.3334H12.0439L12.6626 18.8334H15.7506L16.3532 21.3334H17.7692L15.1479 10.6667ZM12.8426 17.7654L14.1999 11.9334H14.2612L15.5719 17.7654H12.8426ZM18.9919 10.6667H20.3252V21.3334H18.9919V10.6667Z" fill="#696969"/>
</svg>
