<svg width="861" height="142" viewBox="0 0 861 142" fill="none" xmlns="http://www.w3.org/2000/svg">
<g clip-path="url(#clip0_2346_4922)">
<rect width="861" height="142" rx="15" fill="#1B2433"/>

<path d="M46.86 102.02C46.86 100.66 47.1667 99.44 47.78 98.36C48.3933 97.2667 49.2267 07.1C336.338 106.767 336.791 106.293 337.124 105.68C337.458 105.053 337.624 104.327 337.624 103.5ZM344.76 99.54V106C344.76 106.533 344.873 106.913 345.1 107.14C345.327 107.353 345.72 107.46 346.28 107.46H347.62V109H345.98C344.967 109 344.207 108.767 343.7 108.3C343.193 107.833 342.94 107.067 342.94 106V99.54H341.52V98.04H342.94V95.28H344.76V98.04H347.62V99.54H344.76ZM350.765 96.26C350.418 96.26 350.125 96.14 349.885 95.9C349.645 95.66 349.525 95.3667 349.525 95.02C349.525 94.6733 349.645 94.38 349.885 94.14C350.125 93.9 350.418 93.78 350.765 93.78C351.098 93.78 351.378 93.9 351.605 94.14C351.845 94.38 351.965 94.6733 351.965 95.02C351.965 95.3667 351.845 95.66 351.605 95.9C351.378 96.14 351.098 96.26 350.765 96.26ZM351.645 98.04V109H349.825V98.04H351.645ZM364.747 103.1C364.747 103.447 364.727 103.813 364.687 104.2H355.927C355.994 105.28 356.36 106.127 357.027 106.74C357.707 107.34 358.527 107.64 359.487 107.64C360.274 107.64 360.927 107.46 361.447 107.1C361.98 106.727 362.354 106.233 362.567 105.62H364.527C364.234 106.673 363.647 107.533 362.767 108.2C361.887 108.853 360.794 109.18 359.487 109.18C358.447 109.18 357.514 108.947 356.687 108.48C355.874 108.013 355.234 107.353 354.767 106.5C354.3 105.633 354.067 104.633 354.067 103.5C354.067 102.367 354.294 101.373 354.747 100.52C355.2 99.6667 355.834 99.0133 356.647 98.56C357.474 98.0933 358.42 97.86 359.487 97.86C360.527 97.86 361.447 98.0867 362.247 98.54C363.047 98.9933 363.66 99.62 364.087 100.42C364.527 101.207 364.747 102.1 364.747 103.1ZM362.867 102.72C362.867 102.027 362.714 101.433 362.407 100.94C362.1 100.433 361.68 100.053 361.147 99.8C360.627 99.5333 360.047 99.4 359.407 99.4C358.487 99.4 357.7 99.6933 357.047 100.28C356.407 100.867 356.04 101.68 355.947 102.72H362.867ZM372.489 97.84C373.823 97.84 374.903 98.2467 375.729 99.06C376.556 99.86 376.969 101.02 376.969 102.54V109H375.169V102.8C375.169 101.707 374.896 100.873 374.349 100.3C373.803 99.7133 373.056 99.42 372.109 99.42C371.149 99.42 370.383 99.72 369.809 100.32C369.249 100.92 368.969 101.793 368.969 102.94V109H367.149V98.04H368.969V99.6C369.329 99.04 369.816 98.6067 370.429 98.3C371.056 97.9933 371.743 97.84 372.489 97.84ZM382.162 99.54V106C382.162 106.533 382.276 106.913 382.502 107.14C382.729 107.353 383.122 107.46 383.682 107.46H385.67 106.813 432.127 106.353 432.474 105.74C432.834 105.127 433.014 104.38 433.014 103.5C433.014 102.62 432.84 101.873 432.494 101.26C432.147 100.647 431.694 100.193 431.134 99.9C430.574 99.5933 429.967 99.44 429.314 99.4449.955 100.727 449.502 100.26 448.928 99.94C448.368 99.6067 447.748 99.44 447.068 99.44C446.388 99.44 445.768 99.6 445.208 99.92C444.648 100.24 444.202 100.707 443.868 101.32C443.535 101.933 443.368 102.653 443.368 103.48C443.368 104.32 443.535 105.053 443.868 105.68C444.202 106.293 444.648 106.767 445.208 107.1C445.768 107.42 446.388 107.58 447.068 107.58C447.748 107.58 448.368 107.42 448.928 107.1C449.502 106.767 449.955 106.293 450.288 105.68C450.622 105.053 450.788 104.327 450.788 103.5Z" fill="#ECECEF"/>


<path d="M9.15577 86.7966C32.7834 136.552 -61 100.164 -61 100.164L-37.0089 27.3879L-14.4718 -9C-14.4718 -9 25.8768 -6.77207 40.0534 18.8479C54.2299 44.4678 -14.4718 37.0417 9.15577 86.7966Z" stroke="#37414D" stroke-width="2"/>
<path d="M810.506 116.754C848.339 65.0905 861.361 167.659 861.361 167.659L774.882 193.645L726.036 197.711C726.036 197.711 706.832 162.125 725.244 133.82C743.655 105.515 772.674 168.418 810.506 116.754Z" stroke="#37414D" stroke-width="2"/>
<path d="M834.572 -26.4646C792.245 -74.5155 895.216 -65.1916 895.216 -65.1916L902.01 24.851L895.485 73.4298C895.485 73.4298 856.604 84.5377 832.916 60.4736C809.229 36.4095 876.898 21.5863 834.572 -26.4646Z" stroke="#37414D" stroke-width="2"/>
<path d="M484.298 11.3621C425.848 37.5162 465.319 -58.0448 465.319 -58.0448L553.32 -37.803L597.771 -17.1502C597.771 -17.1502 596.836 23.2755 566.825 38.7512C536.814 54.227 542.748 -14.7921 484.298 11.3621Z" stroke="#37414D" stroke-width="2"/>
</g>
<defs>
<clipPath id="clip0_2346_4922">
<rect width="861" height="142" rx="15" fill="white"/>
</clipPath>
</defs>
</svg>
