<svg width="33" height="32" viewBox="0 0 33 32" fill="none" xmlns="http://www.w3.org/2000/svg">
<path fill-rule="evenodd" clip-rule="evenodd" d="M4.93077 -0.0012207H4.80769C4.244 -0.0012207 3.75908 -0.00122068 3.33077 0.0997024C2.66772 0.258139 2.06148 0.597047 1.57921 1.07888C1.09695 1.56071 0.757496 2.16664 0.598461 2.82955C0.5 3.25786 0.5 3.74032 0.5 4.30647V10.4603C0.5 11.024 0.5 11.5089 0.600923 11.9372C0.75936 12.6003 1.09827 13.2065 1.5801 13.6888C2.06193 14.1711 2.66786 14.5105 3.33077 14.6695C3.75908 14.768 4.24154 14.768 4.80769 14.768H10.9615C11.5252 14.768 12.0102 14.768 12.4385 14.6671C13.1015 14.5087 13.7078 14.1697 14.19 13.6879C14.6723 13.2061 15.0117 12.6001 15.1708 11.9372C15.2692 11.5089 15.2692 11.0265 15.2692 10.4603V4.30647C15.2692 3.74278 15.2692 3.25786 15.1683 2.82955C15.0099 2.1665 14.671 1.56026 14.1891 1.07799C13.7073 0.59573 13.1014 0.256275 12.4385 0.0972407C12.0102 -0.00122079 11.5277 -0.0012207 10.9615 -0.0012207H10.8385H4.93077ZM3.90431 2.49478C4.01015 2.47016 4.17508 2.46032 4.93077 2.46032H10.8385C11.5966 2.46032 11.7591 2.4677 11.8649 2.49478C12.086 2.54766 12.2882 2.66075 12.449 2.82151C12.6097 2.98228 12.7228 3.18443 12.7757 3.40555C12.8003 3.50893 12.8077 3.67139 12.8077 4.42955V10.3372C12.8077 11.0954 12.8003 11.2579 12.7732 11.3637C12.7204 11.5848 12.6073 11.787 12.4465 11.9477C12.2857 12.1085 12.0836 12.2216 11.8625 12.2745C11.7615 12.2966 11.5991 12.3065 10.8385 12.3065H4.93077C4.17262 12.3065 4.01015 12.2991 3.90431 12.272C3.68319 12.2191 3.48104 12.106 3.32027 11.9453C3.15951 11.7845 3.04642 11.5824 2.99354 11.3612C2.97138 11.2603 2.96154 11.0979 2.96154 10.3372V4.42955C2.96154 3.67139 2.96892 3.50893 2.996 3.40309C3.04888 3.18197 3.16197 2.97982 3.32273 2.81905C3.4835 2.65829 3.68565 2.5452 3.90677 2.49232M22.1615 -0.0012207H22.0385C21.4748 -0.0012207 20.9898 -0.00122068 20.5615 0.0997024C19.8985 0.258139 19.2922 0.597047 18.81 1.07888C18.3277 1.56071 17.9883 2.16664 17.8292 2.82955C17.7308 3.25786 17.7308 3.74032 17.7308 4.30647V10.4603C17.7308 11.024 17.7308 11.5089 17.8317 11.9372C17.9901 12.6003 18.329 13.2065 18.8109 13.6888C19.2927 14.1711 19.8986 14.5105 20.5615 14.6695C20.9898 14.768 21.4723 14.768 22.0385 14.768H28.1923C28.756 14.768 29.2409 14.768 29.6692 14.6671C30.3323 14.5087 30.9385 14.1697 31.4208 13.6879C31.903 13.2061 32.2425 12.6001 32.4015 11.9372C32.5 11.5089 32.5 11.0265 32.5 10.4603V4.30647C32.5 3.74278 32.5 3.25786 32.3991 2.82955C32.2406 2.1665 31.9017 1.56026 31.4199 1.07799C30.9381 0.59573 30.3321 0.256275 29.6692 0.0972407C29.2409 -0.00122079 28.7585 -0.0012207 28.1923 -0.0012207H28.0692H22.1615ZM21.1351 2.49478C21.2409 2.47016 21.4058 2.46032 22.1615 2.46032H28.0692C28.8274 2.46032 28.9898 2.4677 29.0957 2.49478C29.3168 2.54766 29.519 2.66075 29.6797 2.82151C29.8405 2.98228 29.9536 3.18443 30.0065 3.40555C30.0311 3.50893 30.0385 3.67139 30.0385 4.42955V10.3372C30.0385 11.0954 30.0286 11.2579 30.004 11.3637C29.9511 11.5848 29.838 11.787 29.6773 11.9477C29.5165 12.1085 29.3144 12.2216 29.0932 12.2745C28.9898 12.2991 28.8274 12.3065 28.0692 12.3065H22.1615C21.4034 12.3065 21.2409 12.2991 21.1351 12.272C20.914 12.2191 20.7118 12.106 20.551 11.9453C20.3903 11.7845 20.2772 11.5824 20.2243 11.3612C20.2022 11.2603 20.1923 11.0979 20.1923 10.3372V4.42955C20.1923 3.67139 20.1997 3.50893 20.2268 3.40309C20.2796 3.18197 20.3927 2.97982 20.5535 2.81905C20.7143 2.65829 20.9164 2.5452 21.1375 2.49232M4.80769 17.2295H10.9615C11.5252 17.2295 12.0102 17.2295 12.4385 17.3305C13.1015 17.4889 13.7078 17.8278 14.19 18.3096C14.6723 18.7915 15.0117 19.3974 15.1708 20.0603C15.2692 20.4886 15.2692 20.9711 15.2692 21.5372V27.6911C15.2692 28.2548 15.2692 28.7397 15.1683 29.168C15.0099 29.8311 14.671 30.4373 14.1891 30.9196C13.7073 31.4018 13.1014 31.7413 12.4385 31.9003C12.0102 31.9988 11.5277 31.9988 10.9615 31.9988H4.80769C4.244 31.9988 3.75908 31.9988 3.33077 31.8979C2.66772 31.7394 2.06148 31.4005 1.57921 30.9187C1.09695 30.4369 0.757496 29.8309 0.598461 29.168C0.5 28.7397 0.5 28.2572 0.5 27.6911V21.5372C0.5 20.9735 0.5 20.4886 0.600923 20.0603C0.75936 19.3973 1.09827 18.791 1.5801 18.3088C2.06193 17.8265 2.66786 17.487 3.33077 17.328C3.75908 17.2295 4.24154 17.2295 4.80769 17.2295ZM4.93077 19.6911C4.17262 19.6911 4.01015 19.6985 3.90431 19.7255C3.68319 19.7784 3.48104 19.8915 3.32027 20.0523C3.15951 20.213 3.04642 20.4152 2.99354 20.6363C2.97138 20.7372 2.96154 20.8997 2.96154 21.6603V27.568C2.96154 28.3262 2.96892 28.4886 2.996 28.5945C3.04888 28.8156 3.16197 29.0177 3.32273 29.1785C3.4835 29.3393 3.68565 29.4524 3.90677 29.5052C4.01015 29.5299 4.17262 29.5372 4.93077 29.5372H10.8385C11.5966 29.5372 11.7591 29.5274 11.8649 29.5028C12.086 29.4499 12.2882 29.3368 12.449 29.176C12.6097 29.0153 12.7228 28.8131 12.7757 28.592C12.8003 28.4886 12.8077 28.3262 12.8077 27.568V21.6603C12.8077 20.9022 12.8003 20.7397 12.7732 20.6339C12.7204 20.4127 12.6073 20.2106 12.4465 20.0498C12.2857 19.8891 12.0836 19.776 11.8625 19.7231C11.7615 19.7009 11.5991 19.6911 10.8385 19.6911H4.93077ZM22.1615 17.2295H22.0385C21.4748 17.2295 20.9898 17.2295 20.5615 17.3305C19.8985 17.4889 19.2922 17.8278 18.81 18.3096C18.3277 18.7915 17.9883 19.3974 17.8292 20.0603C17.7308 20.4886 17.7308 20.9711 17.7308 21.5372V27.6911C17.7308 28.2548 17.7308 28.7397 17.8317 29.168C17.9901 29.8311 18.329 30.4373 18.8109 30.9196C19.2927 31.4018 19.8986 31.7413 20.5615 31.9003C20.9898 32.0012 21.4748 32.0012 22.0385 32.0012H28.1923C28.756 32.0012 29.2409 32.0012 29.6692 31.9003C30.3318 31.7415 30.9376 31.4024 31.4194 30.9206C31.9012 30.4388 32.2402 29.8331 32.3991 29.1705C32.5 28.7422 32.5 28.2572 32.5 27.6936V21.5372C32.5 20.9735 32.5 20.4886 32.3991 20.0603C32.2406 19.3973 31.9017 18.791 31.4199 18.3088C30.9381 17.8265 30.3321 17.487 29.6692 17.328C29.2409 17.2295 28.7585 17.2295 28.1923 17.2295H28.0692H22.1615ZM21.1351 19.7255C21.2409 19.7009 21.4058 19.6911 22.1615 19.6911H28.0692C28.8274 19.6911 28.9898 19.6985 29.0957 19.7255C29.3168 19.7784 29.519 19.8915 29.6797 20.0523C29.8405 20.213 29.9536 20.4152 30.0065 20.6363C30.0311 20.7397 30.0385 20.9022 30.0385 21.6603V27.568C30.0385 28.3262 30.0286 28.4886 30.004 28.5945C29.9511 28.8156 29.838 29.0177 29.6773 29.1785C29.5165 29.3393 29.3144 29.4524 29.0932 29.5052C28.9898 29.5299 28.8274 29.5372 28.0692 29.5372H22.1615C21.4034 29.5372 21.2409 29.5274 21.1351 29.5028C20.914 29.4499 20.7118 29.3368 20.551 29.176C20.3903 29.0153 20.2772 28.8131 20.2243 28.592C20.2022 28.4911 20.1923 28.3286 20.1923 27.568V21.6603C20.1923 20.9022 20.1997 20.7397 20.2268 20.6339C20.2796 20.4127 20.3927 20.2106 20.5535 20.0498C20.7143 19.8891 20.9164 19.776 21.1375 19.7231" fill="currentColor"/>
</svg>
