<svg width="32" height="32" viewBox="0 0 32 32" fill="none" xmlns="http://www.w3.org/2000/svg">
<path fill-rule="evenodd" clip-rule="evenodd" d="M4.43077 -0.0012207H4.30769C3.744 -0.0012207 3.25908 -0.00122068 2.83077 0.0997024C2.16772 0.258139 1.56148 0.597047 1.07921 1.07888C0.59695 1.56071 0.257496 2.16664 0.0984614 2.82955C-9.16995e-08 3.25786 0 3.74032 0 4.30647V10.4603C0 11.024 1.83399e-08 11.5089 0.100923 11.9372C0.25936 12.6003 0.598268 13.2065 1.0801 13.6888C1.56193 14.1711 2.16786 14.5105 2.83077 14.6695C3.25908 14.768 3.74154 14.768 4.30769 14.768H10.4615C11.0252 14.768 11.5102 14.768 11.9385 14.6671C12.6015 14.5087 13.2078 14.1697 13.69 13.6879C14.1723 13.2061 14.5117 12.6001 14.6708 11.9372C14.7692 11.5089 14.7692 11.0265 14.7692 10.4603V4.30647C14.7692 3.74278 14.7692 3.25786 14.6683 2.82955C14.5099 2.1665 14.171 1.56026 13.6891 1.07799C13.2073 0.59573 12.6014 0.256275 11.9385 0.0972407C11.5102 -0.00122079 11.0277 -0.0012207 10.4615 -0.0012207H10.3385H4.43077ZM3.40431 2.49478C3.51015 2.47016 3.67508 2.46032 4.43077 2.46032H10.3385C11.0966 2.46032 11.2591 2.4677 11.3649 2.49478C11.586 2.54766 11.7882 2.66075 11.949 2.82151C12.1097 2.98228 12.2228 3.18443 12.2757 3.40555C12.3003 3.50893 12.3077 3.67139 12.3077 4.42955V10.3372C12.3077 11.0954 12.3003 11.2579 12.2732 11.3637C12.2204 11.5848 12.1073 11.787 11.9465 11.9477C11.7857 12.1085 11.5836 12.2216 11.3625 12.2745C11.2615 12.2966 11.0991 12.3065 10.3385 12.3065H4.43077C3.67262 12.3065 3.51015 12.2991 3.40431 12.272C3.18319 12.2191 2.98104 12.106 2.82027 11.9453C2.65951 11.7845 2.54642 11.5824 2.49354 11.3612C2.47138 11.2603 2.46154 11.0979 2.46154 10.3372V4.42955C2.46154 3.67139 2.46892 3.50893 2.496 3.40309C2.54888 3.18197 2.66197 2.97982 2.82273 2.81905C2.9835 2.65829 3.18565 2.5452 3.40677 2.49232M21.6615 -0.0012207H21.5385C20.9748 -0.0012207 20.4898 -0.00122068 20.0615 0.0997024C19.3985 0.258139 18.7922 0.597047 18.31 1.07888C17.8277 1.56071 17.4883 2.16664 17.3292 2.82955C17.2308 3.25786 17.2308 3.74032 17.2308 4.30647V10.4603C17.2308 11.024 17.2308 11.5089 17.3317 11.9372C17.4901 12.6003 17.829 13.2065 18.3109 13.6888C18.7927 14.1711 19.3986 14.5105 20.0615 14.6695C20.4898 14.768 20.9723 14.768 21.5385 14.768H27.6923C28.256 14.768 28.7409 14.768 29.1692 14.6671C29.8323 14.5087 30.4385 14.1697 30.9208 13.6879C31.403 13.2061 31.7425 12.6001 31.9015 11.9372C32 11.5089 32 11.0265 32 10.4603V4.30647C32 3.74278 32 3.25786 31.8991 2.82955C31.7406 2.1665 31.4017 1.56026 30.9199 1.07799C30.4381 0.59573 29.8321 0.256275 29.1692 0.0972407C28.7409 -0.00122079 28.2585 -0.0012207 27.6923 -0.0012207H27.5692H21.6615ZM20.6351 2.49478C20.7409 2.47016 20.9058 2.46032 21.6615 2.46032H27.5692C28.3274 2.46032 28.4898 2.4677 28.5957 2.49478C28.8168 2.54766 29.019 2.66075 29.1797 2.82151C29.3405 2.98228 29.4536 3.18443 29.5065 3.40555C29.5311 3.50893 29.5385 3.67139 29.5385 4.42955V10.3372C29.5385 11.0954 29.5286 11.2579 29.504 11.3637C29.4511 11.5848 29.338 11.787 29.1773 11.9477C29.0165 12.1085 28.8144 12.2216 28.5932 12.2745C28.4898 12.2991 28.3274 12.3065 27.5692 12.3065H21.6615C20.9034 12.3065 20.7409 12.2991 20.6351 12.272C20.414 12.2191 20.2118 12.106 20.051 11.9453C19.8903 11.7845 19.7772 11.5824 19.7243 11.3612C19.7022 11.2603 19.6923 11.0979 19.6923 10.3372V4.42955C19.6923 3.67139 19.6997 3.50893 19.7268 3.40309C19.7796 3.18197 19.8927 2.97982 20.0535 2.81905C20.2143 2.65829 20.4164 2.5452 20.6375 2.49232M4.30769 17.2295H10.4615C11.0252 17.2295 11.5102 17.2295 11.9385 17.3305C12.6015 17.4889 13.2078 17.8278 13.69 18.3096C14.1723 18.7915 14.5117 19.3974 14.6708 20.0603C14.7692 20.4886 14.7692 20.9711 14.7692 21.5372V27.6911C14.7692 28.2548 14.7692 28.7397 14.6683 29.168C14.5099 29.8311 14.171 30.4373 13.6891 30.9196C13.2073 31.4018 12.6014 31.7413 11.9385 31.9003C11.5102 31.9988 11.0277 31.9988 10.4615 31.9988H4.30769C3.744 31.9988 3.25908 31.9988 2.83077 31.8979C2.16772 31.7394 1.56148 31.4005 1.07921 30.9187C0.59695 30.4369 0.257496 29.8309 0.0984614 29.168C-9.16995e-08 28.7397 0 28.2572 0 27.6911V21.5372C0 20.9735 1.83399e-08 20.4886 0.100923 20.0603C0.25936 19.3973 0.598268 18.791 1.0801 18.3088C1.56193 17.8265 2.16786 17.487 2.83077 17.328C3.25908 17.2295 3.74154 17.2295 4.30769 17.2295ZM4.43077 19.6911C3.67262 19.6911 3.51015 19.6985 3.40431 19.7255C3.18319 19.7784 2.98104 19.8915 2.82027 20.0523C2.65951 20.213 2.54642 20.4152 2.49354 20.6363C2.47138 20.7372 2.46154 20.8997 2.46154 21.6603V27.568C2.46154 28.3262 2.46892 28.4886 2.496 28.5945C2.54888 28.8156 2.66197 29.0177 2.82273 29.1785C2.9835 29.3393 3.18565 29.4524 3.40677 29.5052C3.51015 29.5299 3.67262 29.5372 4.43077 29.5372H10.3385C11.0966 29.5372 11.2591 29.5274 11.3649 29.5028C11.586 29.4499 11.7882 29.3368 11.949 29.176C12.1097 29.0153 12.2228 28.8131 12.2757 28.592C12.3003 28.4886 12.3077 28.3262 12.3077 27.568V21.6603C12.3077 20.9022 12.3003 20.7397 12.2732 20.6339C12.2204 20.4127 12.1073 20.2106 11.9465 20.0498C11.7857 19.8891 11.5836 19.776 11.3625 19.7231C11.2615 19.7009 11.0991 19.6911 10.3385 19.6911H4.43077ZM21.6615 17.2295H21.5385C20.9748 17.2295 20.4898 17.2295 20.0615 17.3305C19.3985 17.4889 18.7922 17.8278 18.31 18.3096C17.8277 18.7915 17.4883 19.3974 17.3292 20.0603C17.2308 20.4886 17.2308 20.9711 17.2308 21.5372V27.6911C17.2308 28.2548 17.2308 28.7397 17.3317 29.168C17.4901 29.8311 17.829 30.4373 18.3109 30.9196C18.7927 31.4018 19.3986 31.7413 20.0615 31.9003C20.4898 32.0012 20.9748 32.0012 21.5385 32.0012H27.6923C28.256 32.0012 28.7409 32.0012 29.1692 31.9003C29.8318 31.7415 30.4376 31.4024 30.9194 30.9206C31.4012 30.4388 31.7402 29.8331 31.8991 29.1705C32 28.7422 32 28.2572 32 27.6936V21.5372C32 20.9735 32 20.4886 31.8991 20.0603C31.7406 19.3973 31.4017 18.791 30.9199 18.3088C30.4381 17.8265 29.8321 17.487 29.1692 17.328C28.7409 17.2295 28.2585 17.2295 27.6923 17.2295H27.5692H21.6615ZM20.6351 19.7255C20.7409 19.7009 20.9058 19.6911 21.6615 19.6911H27.5692C28.3274 19.6911 28.4898 19.6985 28.5957 19.7255C28.8168 19.7784 29.019 19.8915 29.1797 20.0523C29.3405 20.213 29.4536 20.4152 29.5065 20.6363C29.5311 20.7397 29.5385 20.9022 29.5385 21.6603V27.568C29.5385 28.3262 29.5286 28.4886 29.504 28.5945C29.4511 28.8156 29.338 29.0177 29.1773 29.1785C29.0165 29.3393 28.8144 29.4524 28.5932 29.5052C28.4898 29.5299 28.3274 29.5372 27.5692 29.5372H21.6615C20.9034 29.5372 20.7409 29.5274 20.6351 29.5028C20.414 29.4499 20.2118 29.3368 20.051 29.176C19.8903 29.0153 19.7772 28.8131 19.7243 28.592C19.7022 28.4911 19.6923 28.3286 19.6923 27.568V21.6603C19.6923 20.9022 19.6997 20.7397 19.7268 20.6339C19.7796 20.4127 19.8927 20.2106 20.0535 20.0498C20.2143 19.8891 20.4164 19.776 20.6375 19.7231" fill="#4E5AC3"/>
</svg>
