<svg width="32" height="32" viewBox="0 0 32 32" fill="none" xmlns="http://www.w3.org/2000/svg">
<path fill-rule="evenodd" clip-rule="evenodd" d="M16 0C7.16354 0 0 7.16354 0 16C0 24.8365 7.16354 32 16 32C24.8365 32 32 24.8365 32 16C32 7.16354 24.8365 0 16 0ZM2.23256 16C2.23256 12.6006 3.46493 9.48837 5.50698 7.08614L10.2742 11.8519C9.39844 13.0575 8.92785 14.5099 8.93023 16C8.92795 17.4901 9.39853 18.9425 10.2742 20.1481L5.50698 24.9139C3.38865 22.4274 2.2275 19.2664 2.23256 16ZM11.8519 10.2742L7.08614 5.50698C9.57258 3.38865 12.7336 2.2275 16 2.23256C19.3994 2.23256 22.5116 3.46493 24.9139 5.50698L20.1466 10.2742C18.9415 9.39864 17.4896 8.92806 16 8.93023C14.5099 8.92785 13.0575 9.39844 11.8519 10.2742ZM7.08614 26.493C9.57258 28.6114 12.7336 29.7725 16 29.7674C19.2664 29.7725 22.4274 28.6114 24.9139 26.493L20.1466 21.7258C18.9415 22.6014 17.4896 23.0719 16 23.0698C14.5099 23.0722 13.0575 22.6016 11.8519 21.7258L7.08614 26.493ZM21.7258 20.1466L26.493 24.9139C28.6114 22.4274 29.7725 19.2664 29.7674 16C29.7725 12.7336 28.6114 9.57258 26.493 7.08614L21.7258 11.8519C22.6015 13.0575 23.0721 14.5099 23.0698 16C23.0723 17.4901 22.6017 18.9411 21.7258 20.1466ZM11.1628 16C11.1628 14.7171 11.6724 13.4867 12.5796 12.5796C13.4867 11.6724 14.7171 11.1628 16 11.1628C17.2829 11.1628 18.5133 11.6724 19.4204 12.5796C20.3276 13.4867 20.8372 14.7171 20.8372 16C20.8372 17.2829 20.3276 18.5133 19.4204 19.4204C18.5133 20.3276 17.2829 20.8372 16 20.8372C14.7171 20.8372 13.4867 20.3276 12.5796 19.4204C11.6724 18.5133 11.1628 17.2829 11.1628 16Z" fill="#696969"/>
</svg>
