<svg width="33" height="32" viewBox="0 0 33 32" fill="none" xmlns="http://www.w3.org/2000/svg">
<path d="M25.8337 4C26.8945 4 27.9119 4.42143 28.6621 5.17157C29.4122 5.92172 29.8337 6.93913 29.8337 8V21.3333C29.8337 22.3942 29.4122 23.4116 28.6621 24.1618C27.9119 24.9119 26.8945 25.3333 25.8337 25.3333H10.2777L5.83366 28.6667C4.73499 29.4907 3.16699 28.7067 3.16699 27.3333V8C3.16699 6.93913 3.58842 5.92172 4.33857 5.17157C5.08871 4.42143 6.10613 4 7.16699 4H25.8337ZM25.8337 6.66667H7.16699C6.81337 6.66667 6.47423 6.80714 6.22418 7.05719C5.97413 7.30724 5.83366 7.64638 5.83366 8V25.3333L8.67766 23.2C9.13925 22.8538 9.70067 22.6667 10.2777 22.6667H25.8337C26.1873 22.6667 26.5264 22.5262 26.7765 22.2761C27.0265 22.0261 27.167 21.687 27.167 21.3333V8C27.167 7.64638 27.0265 7.30724 26.7765 7.05719C26.5264 6.80714 26.1873 6.66667 25.8337 6.66667ZM15.167 16C15.5068 16.0004 15.8337 16.1305 16.0808 16.3638C16.3279 16.5971 16.4766 16.9159 16.4966 17.2552C16.5165 17.5944 16.4061 17.9285 16.188 18.1891C15.9699 18.4497 15.6605 18.6172 15.323 18.6573L15.167 18.6667H11.167C10.8272 18.6663 10.5003 18.5362 10.2532 18.3029C10.0061 18.0696 9.85735 17.7507 9.83743 17.4115C9.81751 17.0722 9.92789 16.7382 10.146 16.4776C10.3641 16.217 10.6735 16.0495 11.011 16.0093L11.167 16H15.167ZM21.8337 10.6667C22.1873 10.6667 22.5264 10.8071 22.7765 11.0572C23.0265 11.3072 23.167 11.6464 23.167 12C23.167 12.3536 23.0265 12.6928 22.7765 12.9428C22.5264 13.1929 22.1873 13.3333 21.8337 13.3333H11.167C10.8134 13.3333 10.4742 13.1929 10.2242 12.9428C9.97413 12.6928 9.83366 12.3536 9.83366 12C9.83366 11.6464 9.97413 11.3072 10.2242 11.0572C10.4742 10.8071 10.8134 10.6667 11.167 10.6667H21.8337Z" fill="#696969"/>
</svg>
