<svg width="32" height="33" viewBox="0 0 32 33" fill="none" xmlns="http://www.w3.org/2000/svg">
<path d="M3.28571 5.38951C2.67951 5.38951 2.09812 5.63032 1.66947 6.05898C1.24082 6.48763 1 7.06901 1 7.67522V29.3895C1 29.9957 1.24082 30.5771 1.66947 31.0058C2.09812 31.4344 2.67951 31.6752 3.28571 31.6752H28.4286C29.0348 31.6752 29.6162 31.4344 30.0448 31.0058C30.4735 30.5771 30.7143 29.9957 30.7143 29.3895V7.67522C30.7143 7.06901 30.4735 6.48763 30.0448 6.05898C29.6162 5.63032 29.0348 5.38951 28.4286 5.38951H23.8571M7.85714 1.96094V8.81808M23.8571 1.96094V8.81808M7.85714 5.38951H19.2857" stroke="#696969" stroke-width="2" stroke-linecap="round" stroke-linejoin="round"/>
<path d="M14.0011 11.2456C13.698 11.2456 13.4073 11.366 13.1929 11.5803C12.9786 11.7947 12.8582 12.0854 12.8582 12.3885V15.6022H9.63993C9.33682 15.6022 9.04613 15.7226 8.83181 15.9369C8.61748 16.1512 8.49707 16.4419 8.49707 16.745V20.4593C8.49707 20.7624 8.61748 21.0531 8.83181 21.2674C9.04613 21.4818 9.33682 21.6022 9.63993 21.6022H12.8559V24.8159C12.8559 25.119 12.9763 25.4097 13.1907 25.624C13.405 25.8383 13.6957 25.9587 13.9988 25.9587H17.7131C17.8632 25.9587 18.0118 25.9292 18.1504 25.8718C18.2891 25.8143 18.4151 25.7301 18.5212 25.624C18.6273 25.5179 18.7115 25.3919 18.7689 25.2532C18.8264 25.1146 18.8559 24.966 18.8559 24.8159V21.6022H22.0696C22.3727 21.6022 22.6634 21.4818 22.8778 21.2674C23.0921 21.0531 23.2125 20.7624 23.2125 20.4593V16.745C23.2125 16.4419 23.0921 16.1512 22.8778 15.9369C22.6634 15.7226 22.3727 15.6022 22.0696 15.6022H18.8582V12.3885C18.8582 12.0854 18.7378 11.7947 18.5235 11.5803C18.3092 11.366 18.0185 11.2456 17.7154 11.2456H14.0011Z" stroke="#696969" stroke-width="2" stroke-linecap="round" stroke-linejoin="round"/>
</svg>
