<svg width="30" height="30" viewBox="0 0 30 30" fill="none" xmlns="http://www.w3.org/2000/svg">
<path d="M10.8213 0.333252H18.3413L19.204 4.64925C19.9183 4.96927 20.5975 5.36248 21.2307 5.82259L25.4027 4.41059L29.1627 10.9226L25.8547 13.8293C25.9348 14.6076 25.9348 15.3922 25.8547 16.1706L29.1613 19.0773L25.4027 25.5893L21.2307 24.1786C20.5974 24.6382 19.9182 25.031 19.204 25.3506L18.34 29.6666H10.8213L9.95867 25.3506C9.24439 25.0305 8.56521 24.6373 7.932 24.1773L3.76 25.5893L0 19.0773L3.308 16.1706C3.22799 15.3922 3.22799 14.6076 3.308 13.8293L0.0013334 10.9226L3.76133 4.41059L7.932 5.82125C8.56524 5.36161 9.24443 4.96884 9.95867 4.64925L10.8213 0.333252ZM13.008 2.99992L12.2853 6.60659L11.5853 6.86392C10.6576 7.20624 9.7953 7.70501 9.036 8.33859L8.46267 8.81725L4.976 7.63725L3.40267 10.3626L6.16533 12.7906L6.03867 13.5253C5.87146 14.5013 5.87146 15.4986 6.03867 16.4746L6.16533 17.2079L3.40133 19.6373L4.97467 22.3626L8.46267 21.1826L9.036 21.6613C9.79572 22.2942 10.6579 22.7929 11.5853 23.1359L12.2853 23.3933L13.008 26.9999H16.1547L16.8773 23.3933L17.5773 23.1359C18.5051 22.7936 19.3673 22.2948 20.1267 21.6613L20.7 21.1826L24.188 22.3626L25.7613 19.6373L22.9987 17.2093L23.124 16.4746C23.2912 15.4986 23.2912 14.5013 23.124 13.5253L22.9987 12.7919L25.7613 10.3626L24.188 7.63725L20.7 8.81725L20.1267 8.33859C19.3674 7.70497 18.5051 7.20619 17.5773 6.86392L16.8773 6.60659L16.1547 2.99992H13.008ZM14.5813 10.9999C13.5205 10.9999 12.503 11.4213 11.7529 12.1715C11.0028 12.9216 10.5813 13.9391 10.5813 14.9999C10.5813 16.0608 11.0028 17.0782 11.7529 17.8283C12.503 18.5785 13.5205 18.9999 14.5813 18.9999C15.6422 18.9999 16.6596 18.5785 17.4098 17.8283C18.1599 17.0782 18.5813 16.0608 18.5813 14.9999C18.5813 13.9391 18.1599 12.9216 17.4098 12.1715C16.6596 11.4213 15.6422 10.9999 14.5813 10.9999ZM7.91467 14.9999C7.91467 13.2318 8.61704 11.5361 9.86729 10.2859C11.1175 9.03563 12.8132 8.33325 14.5813 8.33325C16.3494 8.33325 18.0451 9.03563 19.2954 10.2859C20.5456 11.5361 21.248 13.2318 21.248 14.9999C21.248 16.768 20.5456 18.4637 19.2954 19.714C18.0451 20.9642 16.3494 21.6666 14.5813 21.6666C12.8132 21.6666 11.1175 20.9642 9.86729 19.714C8.61704 18.4637 7.91467 16.768 7.91467 14.9999Z" fill="#696969"/>
</svg>
